<svg width="68" height="100" fill="none" xmlns="http://www.w3.org/2000/svg"><path d="M66.765 100H1.235a1.172 1.172 0 01-1.172-1.172V1.172C.063.525.588 0 1.235 0h65.53c.647 0 1.172.525 1.172 1.172v97.656c0 .647-.525 1.172-1.172 1.172zM2.407 97.656h63.186V2.344H2.407v95.312z" fill="#1E2E36"/><path d="M34 71.494c-.647 0-1.172-.375-1.172-.838V.838C32.828.375 33.352 0 34 0c.647 0 1.172.375 1.172.838v69.818c0 .463-.525.838-1.172.838zM34 100H1.235a1.172 1.172 0 01-1.172-1.172V84.575c0-.647.525-1.172 1.172-1.172H34c.647 0 1.172.525 1.172 1.172v14.253c0 .647-.525 1.172-1.172 1.172zM2.407 97.656h30.421V85.747H2.407v11.91z" fill="#1E2E36"/><path d="M34 85.747H1.235a1.172 1.172 0 01-1.172-1.172V70.322c0-.647.525-1.172 1.172-1.172H34c.647 0 1.172.525 1.172 1.172v14.253c0 .647-.525 1.172-1.172 1.172zM2.407 83.403h30.42V71.494H2.408v11.91z" fill="#1E2E36"/><path d="M19.267 78.62h-3.299a1.172 1.172 0 010-2.343h3.299a1.172 1.172 0 010 2.344zm7.827-40.266a1.172 1.172 0 01-1.172-1.172v-2.87a1.172 1.172 0 112.343 0v2.87c0 .647-.524 1.172-1.171 1.172zm13.812 14.253a1.172 1.172 0 01-1.172-1.172v-2.87a1.172 1.172 0 112.344 0v2.87c0 .647-.525 1.172-1.172 1.172zM19.267 92.874h-3.299a1.172 1.172 0 110-2.344h3.299a1.172 1.172 0 010 2.344z" fill="#1E2E36"/></svg>